<svg width="350" height="295" fill="none" xmlns="http://www.w3.org/2000/svg"><path d="M135.567 67.784c0 37.269-30.28 67.484-67.634 67.484S.3 105.053.3 67.784C.3 30.514 30.58.299 67.933.299s67.634 30.215 67.634 67.484Z" stroke="#00C875" stroke-width=".599"/><rect x="59.818" y="60.285" width="211.054" height="141.265" rx="4.074" fill="#fff" stroke="#6161FF" stroke-width=".495"/><path d="M249.693 131.823c0-.458.371-.829.829-.829h3.764c.242 0 .471.106.629.29l2.039 2.379c.129.15.2.341.2.539v5.911a.829.829 0 0 1-.829.829h-5.803a.829.829 0 0 1-.829-.829v-8.29Z" fill="#237F4C"/><path d="m252.072 137.502.978-1.538-.896-1.529h.721l.489.978c.046.093.077.162.093.207h.007c.032-.074.066-.146.101-.216l.523-.969h.663l-.92 1.52.943 1.547h-.705l-.565-1.074a.811.811 0 0 1-.067-.143h-.009a.652.652 0 0 1-.065.139l-.582 1.078h-.709Z" fill="#fff"/><circle cx="152.158" cy="111.21" r="4.748" fill="#E2E6F3"/><circle cx="152.158" cy="123.607" r="4.748" fill="#E2E6F3"/><circle cx="152.158" cy="136.008" r="4.748" fill="#E2E6F3"/><circle cx="152.158" cy="148.403" r="4.748" fill="#E2E6F3"/><circle cx="152.158" cy="160.8" r="4.748" fill="#E2E6F3"/><circle cx="152.158" cy="173.198" r="4.748" fill="#E2E6F3"/><path fill="#00C875" d="M207.551 105.407h37.193v11.606h-37.193zm0 12.395h37.193v11.606h-37.193zm0 12.399h37.193v11.606h-37.193z"/><path fill="#FFCB00" d="M207.551 142.599h37.193v11.606h-37.193zm0 12.398h37.193v11.87h-37.193z"/><path fill="#FB275D" d="M207.551 167.395h37.193v12.134h-37.193z"/><rect x="166.664" y="110.157" width="34.555" height="3.165" rx="1.583" fill="#E2E6F3"/><rect x="166.664" y="122.553" width="34.555" height="3.165" rx="1.583" fill="#E2E6F3"/><rect x="166.664" y="134.951" width="34.555" height="3.165" rx="1.583" fill="#E2E6F3"/><rect x="166.664" y="147.348" width="34.555" height="3.165" rx="1.583" fill="#E2E6F3"/><rect x="166.664" y="159.744" width="34.555" height="3.165" rx="1.583" fill="#E2E6F3"/><rect x="166.664" y="172.406" width="34.555" height="3.165" rx="1.583" fill="#E2E6F3"/><path d="M166.664 111.739c0-.874.709-1.582 1.583-1.582h27.433v3.165h-27.433a1.583 1.583 0 0 1-1.583-1.583Zm0 12.397c0-.874.709-1.583 1.583-1.583h13.98v3.166h-13.98a1.583 1.583 0 0 1-1.583-1.583Zm0 12.398c0-.874.709-1.583 1.583-1.583h20.047v3.166h-20.047a1.583 1.583 0 0 1-1.583-1.583Zm0 12.396c0-.874.709-1.582 1.583-1.582h9.496v3.165h-9.496a1.583 1.583 0 0 1-1.583-1.583Zm0 12.397c0-.874.709-1.583 1.583-1.583h21.366v3.165h-21.366a1.582 1.582 0 0 1-1.583-1.582Zm0 12.662c0-.874.709-1.583 1.583-1.583h15.826v3.166h-15.826a1.583 1.583 0 0 1-1.583-1.583Z" fill="#579BFC"/><path stroke="#E2E6F3" stroke-width=".528" d="M74.865 104.878h187.018v12.661H74.865z"/><path fill="#6C6CFF" d="M74.57 104.712h2.638v13.191H74.57z"/><path stroke="#E2E6F3" stroke-width=".528" d="M74.869 117.276h187.018v12.661H74.869z"/><path fill="#6C6CFF" d="M74.57 117.113h2.638v13.191H74.57z"/><path stroke="#E2E6F3" stroke-width=".528" d="M74.865 129.674h187.018v12.661H74.865zm132.682 50.381v-74.912m-46.426 74.912v-74.912m-17.406 74.912v-74.912m101.023 74.912v-74.912"/><path fill="#6C6CFF" d="M74.57 129.508h2.638v13.191H74.57z"/><path stroke="#E2E6F3" stroke-width=".528" d="M74.869 142.071h187.018v12.661H74.869z"/><path fill="#6C6CFF" d="M74.57 141.908h2.638v13.191H74.57z"/><path stroke="#E2E6F3" stroke-width=".528" d="M74.869 154.466h187.018v12.661H74.869z"/><path stroke="#E2E6F3" stroke-width=".528" d="M74.869 167.126h187.018v12.661H74.869z"/><path fill="#6C6CFF" d="M74.57 154.3h2.638v13.191H74.57z"/><path fill="#6C6CFF" d="M74.57 166.862h2.638v13.191H74.57z"/><rect x="81.727" y="110.42" width="31.917" height="2.638" rx="1.319" fill="#E3E6F3"/><rect x="81.727" y="135.212" width="33.236" height="2.638" rx="1.319" fill="#E3E6F3"/><rect x="81.727" y="160.797" width="23.212" height="2.638" rx="1.319" fill="#E3E6F3"/><rect x="81.727" y="172.141" width="23.212" height="2.638" rx="1.319" fill="#E3E6F3"/><rect x="81.727" y="147.611" width="16.354" height="2.638" rx="1.319" fill="#E3E6F3"/><rect x="81.727" y="122.815" width="25.85" height="2.638" rx="1.319" fill="#E3E6F3"/><rect x="74.434" y="82.915" width="61.37" height="3.409" rx="1.705" fill="#E3E6F3"/><path d="M249.412 107.005c0-.458.371-.829.829-.829h3.763a.83.83 0 0 1 .63.29l2.039 2.379c.129.15.2.342.2.539v5.911a.83.83 0 0 1-.829.829h-5.803a.829.829 0 0 1-.829-.829v-8.29Z" fill="#00C875"/><path fill-rule="evenodd" clip-rule="evenodd" d="M251.519 109.562a.438.438 0 0 1 .24-.074h.001a.43.43 0 0 1 .432.432.429.429 0 0 1-.266.399.436.436 0 0 1-.471-.093.438.438 0 0 1-.094-.47.43.43 0 0 1 .158-.194Zm2.356 1.127 1.339 2.124h-4.145l.881-1.389a.26.26 0 0 1 .283-.112c.035.01.067.027.095.05l.428.36.691-1.037a.25.25 0 0 1 .336-.085.261.261 0 0 1 .092.089Z" fill="#fff"/><path d="M249.412 144.204c0-.458.371-.829.829-.829h3.763a.83.83 0 0 1 .63.289l2.039 2.379c.129.15.2.342.2.54v5.91a.83.83 0 0 1-.829.829h-5.803a.829.829 0 0 1-.829-.829v-8.289Z" fill="#00C875"/><path fill-rule="evenodd" clip-rule="evenodd" d="M251.519 146.76a.429.429 0 0 1 .24-.073h.001a.43.43 0 0 1 .359.671.434.434 0 0 1-.443.184.434.434 0 0 1-.157-.782Zm2.356 1.127 1.339 2.124h-4.145l.881-1.389a.26.26 0 0 1 .283-.112.25.25 0 0 1 .095.051l.428.36.691-1.038a.276.276 0 0 1 .093-.087c.038-.02.08-.03.122-.03a.258.258 0 0 1 .213.121Z" fill="#fff"/><path fill-rule="evenodd" clip-rule="evenodd" d="M249.504 119.348c0-.417.338-.754.754-.754h4.269l2.52 2.788v6.264a.755.755 0 0 1-.754.754h-6.035a.755.755 0 0 1-.754-.754v-8.298Z" fill="#6C6CFF"/><path d="m253.96 123.173.881-.44a.073.073 0 0 1 .106.065v1.616c0 .054-.057.09-.106.066l-.881-.441v.379a.221.221 0 0 1-.221.221h-1.908a.221.221 0 0 1-.221-.221v-1.615a.22.22 0 0 1 .221-.22h1.908a.22.22 0 0 1 .221.22v.37Z" fill="#fff"/><path fill-rule="evenodd" clip-rule="evenodd" d="M249.504 157.071c0-.417.338-.755.754-.755h4.269l2.52 2.788v6.264a.755.755 0 0 1-.754.755h-6.035a.755.755 0 0 1-.754-.755v-8.297Z" fill="#6C6CFF"/><path d="m253.96 160.896.881-.441a.074.074 0 0 1 .106.066v1.616c0 .054-.057.09-.106.065l-.881-.44v.379a.22.22 0 0 1-.221.22h-1.908a.22.22 0 0 1-.221-.22v-1.616a.22.22 0 0 1 .221-.22h1.908a.22.22 0 0 1 .221.22v.371Z" fill="#fff"/><path fill-rule="evenodd" clip-rule="evenodd" d="M249.504 169.467c0-.416.338-.754.754-.754h4.269l2.52 2.788v6.264a.755.755 0 0 1-.754.754h-6.035a.755.755 0 0 1-.754-.754v-8.298Z" fill="#6C6CFF"/><path d="m253.96 173.292.881-.44a.073.073 0 0 1 .106.066v1.615c0 .054-.057.09-.106.066l-.881-.441v.379a.221.221 0 0 1-.221.221h-1.908a.221.221 0 0 1-.221-.221v-1.615a.22.22 0 0 1 .221-.22h1.908a.22.22 0 0 1 .221.22v.37Z" fill="#fff"/><rect x="267.18" y="222.535" width="30.453" height="11.636" rx="5.818" fill="#00C875"/><circle cx="245.019" cy="35.201" r="6.284" stroke="#1F0F83" stroke-width=".399"/><path d="M89.21 289.268c28.864 1.576 57.729-4.585 86.607-3.491 34.115 1.291 68.378 2.936 102.506 1.442 3.41-.149 6.83-.242 10.223-.721.793-.112 2.919-.456 2.258-1.042-1.376-1.219-3.232-1.057-4.883-1.282-4.93-.672-9.881-1.066-14.831-1.403-18.839-1.281-32.558 1.629-51.573 1.403-19.659-.234-43.547-4.622-63.231-2.485-4.671.507 9.356.757 14.038 1.042 20.718 1.262 27.599 1.746 49.193 3.687 14.694 1.321 29.364 3.09 44.066 4.247 4.559.359 17.413 1.698 13.641-1.683-2.475-2.218-7.771-3.623-10.01-4.247-9.19-2.565-16.675-3.825-26.274-4.929-33.53-3.855-66.826-.633-100.34 1.322-24.825 1.449-49.543 8.687-74.339 6.537-4.627-.402-20.548-2.062-26.244-2.966-1.448-.229-3.114.067-4.303-1.041-.672-.627 1.587-.681 2.41-.722 3.833-.187 7.672-.11 11.506.04 31.603 1.24 63.082-1.611 94.449 3.322 7.953 1.25 19.741 3.176 28.259 4.648 3.659.632 9.312 1.27 2.502 1.803-16.424 1.287-32.927 1.992-49.376 1.282-3.693-.159-19.082-1.142-24.108-2.564-7.59-2.148 15.293-3.809 23.04-4.488 29.056-2.548 57.659-3.688 86.515 2.765" stroke="#452AEA" stroke-width=".473" stroke-linecap="round"/><circle cx="13.122" cy="13.122" r="13.365" transform="matrix(-1 0 0 1 136.086 14.334)" fill="#FFCB00" stroke="#fff" stroke-width=".486"/><mask id="a" style="mask-type:alpha" maskUnits="userSpaceOnUse" x="109" y="14" width="28" height="27"><circle cx="13.122" cy="13.122" r="13.122" transform="matrix(-1 0 0 1 136.086 14.334)" fill="#452AEA"/></mask><g mask="url(#a)"><rect width="7.725" height="7.001" rx=".724" transform="scale(-1 1) rotate(5.064 -291.292 -1418.004)" fill="#694437"/><circle cx="2.023" cy="2.023" r="2.023" transform="scale(-1 1) rotate(5.064 -279.861 -1428.433)" fill="#fff"/><circle cx="1.686" cy="1.686" r="1.686" transform="scale(-1 1) rotate(5.064 -281.211 -1397.923)" fill="#fff"/><path d="m118.878 24.005 2.814-2.431 1.718-1.122-4.088.362a.724.724 0 0 0-.657.786l.213 2.405Z" fill="#fff"/><circle cx="1.352" cy="1.352" r="1.352" transform="scale(-1 1) rotate(5.064 -324.682 -1342.894)" fill="#694437"/><path d="m123.164 24.317.8 1.5a.331.331 0 0 1-.193.472l-.59.184" stroke="#0F1048" stroke-width=".265" stroke-linecap="round"/><path fill="#6161FF" d="m139.703 28.044-32.469 4.097 1.474 11.679 32.469-4.097z"/><path d="m120.159 30.644 4.183 3.712a.4.4 0 0 0 .663-.244l.565-4.069" stroke="#0F1048" stroke-width=".235" stroke-linecap="round"/><path d="m124.668 34.451-3.22-.362a.4.4 0 0 1-.356-.398v-1.38c0-.22-.18-.4-.401-.4h-.729a.4.4 0 0 1-.319-.643l.477-.628m4.797 3.691 1.923-1.834a.4.4 0 0 0-.088-.644l-.509-.27a.401.401 0 0 1 .115-.748l.334-.063c.479-.09.413-.795-.074-.795h-1.025" stroke="#0F1048" stroke-width=".235" stroke-linecap="round"/></g><path fill="#FFCB00" d="m97.582 200.888-2.913 15.178 44.936 8.623 2.913-15.178z"/><path d="M52.773 191.266s2.082 5.047 10.095.572c0 0 3.279-11.481 5.048-17.726 1.77-6.244 2.749-9.054 2.749-12.486 0-1.682-.273-3.183-.741-4.337-.662-1.632-2.498-1.007-3.129.637-1.939 5.05-5.814 15.064-6.893 17.261-1.509 3.018-7.129 16.079-7.129 16.079Z" fill="url(#b)"/><path d="M52.773 191.266s2.082 5.047 10.095.572c0 0 3.279-11.481 5.048-17.726 1.77-6.244 2.749-9.054 2.749-12.486 0-1.682-.273-3.183-.741-4.337-.662-1.632-2.498-1.007-3.129.637-1.939 5.05-5.814 15.064-6.893 17.261-1.509 3.018-7.129 16.079-7.129 16.079Z" fill="url(#c)"/><path d="M59.593 191.89s-2.082 4.163 1.77 5.36c3.85 1.197 7.128-.312 7.128-.312s9.576-16.927 11.085-19.321c1.51-2.393 6.061-11.099 7.157-15.408.58-2.282.508-4.491.134-6.157-.405-1.809-2.242-1.667-3.277-.128-3.486 5.185-10.94 16.277-12.757 19.003-2.342 3.59-11.24 16.963-11.24 16.963Z" fill="url(#d)"/><path d="M59.593 191.89s-2.082 4.163 1.77 5.36c3.85 1.197 7.128-.312 7.128-.312s9.576-16.927 11.085-19.321c1.51-2.393 6.061-11.099 7.157-15.408.58-2.282.508-4.491.134-6.157-.405-1.809-2.242-1.667-3.277-.128-3.486 5.185-10.94 16.277-12.757 19.003-2.342 3.59-11.24 16.963-11.24 16.963Z" fill="url(#e)"/><path d="M64.486 197.091s-1.77 6.556 8.586 5.932c0 0 9.425-13.236 13.224-18.544 4.579-6.4 13.825-15.278 15.334-17.671.99-1.571 1.305-3.32 1.335-4.831.036-1.858-2.044-2.557-3.482-1.381-5.361 4.381-16.4 13.528-20.167 17.605-5.047 5.464-14.83 18.89-14.83 18.89Z" fill="url(#f)"/><path d="M56.312 189.183s-2.654-.312-4.163 3.538c-1.51 3.851-7.702 15.715-10.095 19.306-2.394 3.538-6.104 11.44-4.127 19.983 1.611 6.961 5.948 15.922 22.86 15.193 16.911-.728 13.06-19.878 13.06-19.878s1.054-15.298 4.851-20.353c4.28-5.696-14.32-16.905-14.32-16.905l-8.066-.884Z" fill="#8B342E"/><path d="M71.873 197.25s16.339-13.217 20.294-14.05c3.33-.701 15.816 12.515 19.672 16.701.693.753.841 1.89.037 2.522-1.391 1.093-4.198 1.985-8.99-1.635-7.441-5.619-9.887-7.389-9.887-7.389s-12.072 11.032-15.038 13.79c-2.914 2.81-6.245-4.839-6.088-9.939Zm-16.298 34.631c-1.16 4.19 0 15.109 6.958 15.109 6.957 0 17.493-7.53 21.248-10.949 2.827-2.616 15.575-9.578 21.938-13.507 2.173-1.341 1.864-3.475-.582-4.21-2.861-.86-6.67-1.57-9.757-.612-5.723 1.777-8.704 9.229-20.948 4.017-4.086.937-17.918 6.678-18.857 10.152Z" fill="#8B342E"/><mask id="g" style="mask-type:alpha" maskUnits="userSpaceOnUse" x="55" y="217" width="53" height="30"><path d="M55.575 231.878c-1.16 4.19 0 15.109 6.958 15.109 6.957 0 17.493-7.53 21.248-10.949 2.827-2.616 15.575-9.578 21.938-13.507 2.173-1.341 1.864-3.475-.582-4.21-2.861-.86-6.67-1.57-9.757-.612-5.723 1.777-8.704 9.229-20.948 4.017-4.086.937-17.918 6.678-18.857 10.152Z" fill="#8B342E"/></mask><g mask="url(#g)"><circle cx="4.55" cy="4.55" r="4.55" transform="matrix(-1 0 0 1 110.586 220.569)" fill="#fff" fill-opacity=".33"/></g><path fill="#fff" stroke="#E2E6F3" stroke-width=".403" d="m211.87 76.768 50.605-13.377 3.305 12.505-50.603 13.377z"/><path fill="#6C6CFF" d="m211.625 76.625 2.59-.684 3.42 12.944-2.588.684z"/><rect x="220.016" y="79.947" width="23.561" height="2.677" rx="1.339" transform="rotate(-14.807 220.016 79.947)" fill="#E3E6F3"/><path d="M281.622 46.837c2.799-1.442 14.556 5.91 20.084 9.768l-8.036 7.062-10.063-3.461-3.18 6.806c-1.451 2.635-2.483 1.457-3.444.911-1.202-.682-3.726-3.972-2.458-7.627 1.268-3.656 3.6-11.656 7.097-13.459Z" fill="#ED7A55"/><path d="M281.622 46.837c2.799-1.442 14.556 5.91 20.084 9.768l-8.036 7.062-10.063-3.461-3.18 6.806c-1.451 2.635-2.483 1.457-3.444.911-1.202-.682-3.726-3.972-2.458-7.627 1.268-3.656 3.6-11.656 7.097-13.459Z" fill="url(#h)"/><path d="M272.528 49.765c2.798-1.442 13.034 5.621 18.563 9.478l-6.238 6.981-10.063-3.461-3.18 6.806c-1.451 2.635-4.594 7.769-5.556 7.223-1.201-.683-1.614-10.284-.346-13.94 1.269-3.654 3.323-11.284 6.82-13.087Z" fill="url(#i)"/><path d="M279.369 87.228c5.846 4.724 11.033 2.886 13.142 1.214-2.842-6.555-11.583-15.125-16.596-19.375L297.893 53.9c18.104 7.718 42.118 27.035 32.029 45.276-12.159 21.983-30.499 15.633-32.676 15.473-9.777-.719-16.936-11.055-25.461-20.756-6.191-7.046-12.795-10.535-16.749-11.894-.908-.312-1.223-1.542-.441-2.1 9.376-6.685 17.624 1.552 24.774 7.33Z" fill="#ED7A55"/><path d="m244.815 50.425 47.935 38.481 3.929-7.932-7.319-13.428-46.263-23.808a5.756 5.756 0 0 0 1.718 6.687Z" fill="#ED7A55"/><mask id="j" style="mask-type:alpha" maskUnits="userSpaceOnUse" x="242" y="43" width="55" height="46"><path d="m244.815 50.424 47.935 38.48 3.929-7.932-7.319-13.427-46.263-23.808a5.757 5.757 0 0 0 1.718 6.687Z" fill="#ED7A55"/></mask><g mask="url(#j)"><ellipse cx="245.587" cy="43.566" rx="3.33" ry="3.401" transform="rotate(-5.738 245.587 43.566)" fill="#FFCB00"/></g><mask id="k" style="mask-type:alpha" maskUnits="userSpaceOnUse" x="254" y="53" width="82" height="62"><path d="M279.362 87.224c5.846 4.724 11.033 2.885 13.142 1.214-2.842-6.555-11.583-15.126-16.597-19.375l21.979-15.167c18.104 7.717 49.856 27.577 32.028 45.275-17.828 17.699-30.499 15.634-32.675 15.474-9.778-.72-16.937-11.056-25.461-20.757-6.191-7.045-12.795-10.534-16.749-11.893-.909-.313-1.223-1.543-.441-2.1 9.376-6.685 17.624 1.551 24.774 7.329Z" fill="#ED7A55"/></mask><g mask="url(#k)"><circle cx="4.244" cy="4.244" r="4.244" transform="scale(-1 1) rotate(-7.114 518.846 2143.726)" fill="#FFCB00"/></g><path d="m283.189 63.984-15.404-7.9m22.908 2.765-12.244-7.9" stroke="#0F1048" stroke-width=".237"/><defs><linearGradient id="b" x1="60.138" y1="173.907" x2="70.615" y2="176.442" gradientUnits="userSpaceOnUse"><stop stop-color="#FC906A"/><stop offset="1" stop-color="#F57957"/></linearGradient><linearGradient id="c" x1="60.133" y1="172.96" x2="65.151" y2="174.271" gradientUnits="userSpaceOnUse"><stop stop-color="#8B342E"/><stop offset="1" stop-color="#721D17"/></linearGradient><linearGradient id="d" x1="59.038" y1="175.481" x2="88.704" y2="175.481" gradientUnits="userSpaceOnUse"><stop stop-color="#FC906A"/><stop offset="1" stop-color="#F57957"/></linearGradient><linearGradient id="e" x1="70.459" y1="173.88" x2="77.861" y2="176.492" gradientUnits="userSpaceOnUse"><stop stop-color="#8B342E"/><stop offset="1" stop-color="#721D17"/></linearGradient><linearGradient id="f" x1="79.688" y1="179.012" x2="88.836" y2="183.298" gradientUnits="userSpaceOnUse"><stop stop-color="#8B342E"/><stop offset="1" stop-color="#721D17"/></linearGradient><linearGradient id="h" x1="285.137" y1="48.029" x2="278.268" y2="58.305" gradientUnits="userSpaceOnUse"><stop stop-color="#ED7A55"/><stop offset="1" stop-color="#ED6236"/></linearGradient><linearGradient id="i" x1="275.23" y1="51.544" x2="267.196" y2="73.449" gradientUnits="userSpaceOnUse"><stop stop-color="#ED7A55"/><stop offset="1" stop-color="#ED6236"/></linearGradient></defs></svg>